HIERARCHY
ROOT hip
{
	OFFSET 0.000000 0.000000 0.000000 
	CHANNELS 6 Xposition Yposition Zposition Zrotation Xrotation Yrotation
	JOINT abdomen
	{
		OFFSET 0.000000 3.402643 0.000000 
		CHANNELS 3 Zrotation Xrotation Yrotation
		JOINT chest
		{
			OFFSET 0.000000 8.438565 -0.680529 
			CHANNELS 3 Zrotation Xrotation Yrotation
			JOINT neck
			{
				OFFSET 0.000000 10.207942 -0.272212 
				CHANNELS 3 Zrotation Xrotation Yrotation
				JOINT head
				{
					OFFSET 0.000000 3.130431 0.000000 
					CHANNELS 3 Zrotation Xrotation Yrotation
					End Site
					{
						OFFSET 0.000000 3.130435 0.000000 
					}
				}
			}
			JOINT lCollar
			{
				OFFSET 3.470700 6.669187 -0.816635 
				CHANNELS 3 Zrotation Xrotation Yrotation
				JOINT lShldr
				{
					OFFSET 3.198488 0.000000 0.000000 
					CHANNELS 3 Zrotation Xrotation Yrotation
					JOINT lForeArm
					{
						OFFSET 10.139888 0.000000 0.000000 
						CHANNELS 3 Zrotation Xrotation Yrotation
						JOINT lHand
						{
							OFFSET 8.370511 0.000000 0.000000 
							CHANNELS 3 Zrotation Xrotation Yrotation
							End Site
							{
								OFFSET 4.083176 0.000000 0.000000 
							}
						}
					}
				}
			}
			JOINT rCollar
			{
				OFFSET -3.470700 6.669187 -0.816635 
				CHANNELS 3 Zrotation Xrotation Yrotation
				JOINT rShldr
				{
					OFFSET -3.198488 0.000000 0.000000 
					CHANNELS 3 Zrotation Xrotation Yrotation
					JOINT rForeArm
					{
						OFFSET -10.139888 0.000000 0.000000 
						CHANNELS 3 Zrotation Xrotation Yrotation
						JOINT rHand
						{
							OFFSET -8.370511 0.000000 0.000000 
							CHANNELS 3 Zrotation Xrotation Yrotation
							End Site
							{
								OFFSET -4.083176 0.000000 0.000000 
							}
						}
					}
				}
			}
		}
	}
	JOINT lThigh
	{
		OFFSET 5.308129 -1.633274 1.361059 
		CHANNELS 3 Zrotation Xrotation Yrotation
		JOINT lShin
		{
			OFFSET -2.041588 -20.007561 0.000000 
			CHANNELS 3 Zrotation Xrotation Yrotation
			JOINT lFoot
			{
				OFFSET 0.000000 -19.190928 -1.224953 
				CHANNELS 3 Zrotation Xrotation Yrotation
				End Site
				{
					OFFSET 0.000000 -2.449906 4.627600 
				}
			}
		}
	}
	JOINT rThigh
	{
		OFFSET -5.308129 -1.633274 1.361059 
		CHANNELS 3 Zrotation Xrotation Yrotation
		JOINT rShin
		{
			OFFSET 2.041588 -20.007561 0.000000 
			CHANNELS 3 Zrotation Xrotation Yrotation
			JOINT rFoot
			{
				OFFSET 0.000000 -19.190928 -1.224953 
				CHANNELS 3 Zrotation Xrotation Yrotation
				End Site
				{
					OFFSET 0.000000 -2.449906 4.627600 
				}
			}
		}
	}
}
MOTION
Frames: 13
Frame Time: 0.016667
-3.058480 48.868980 91.259903 -6.591800 0.361328 78.114304 3.693680 14.158400 -4.975910 -2.670520 -20.613400 -8.298650 11.446100 32.312199 -16.075500 5.432760 20.530899 -6.464050 -1.998780 -0.069785 1.998780 -76.529602 24.756901 -5.725220 -1.700950 -1.318400 -72.141098 -0.086283 -3.486120 0.133624 1.998780 -0.069785 -1.998780 79.965897 13.041800 -18.740999 0.599306 1.289530 58.120300 0.096632 25.475000 -0.058091 5.377040 -17.103100 -11.076200 3.282360 37.950298 0.670767 3.195660 -30.695801 12.341600 5.550850 -21.923901 10.990200 -2.857690 38.363201 -1.096190 3.056450 -24.657499 10.161800 
-3.183480 48.866680 92.707001 -6.650390 0.664063 79.139999 3.732310 14.098900 -5.018950 -2.782470 -20.541700 -8.367800 11.672000 32.076500 -16.319401 5.522390 20.462200 -6.597640 -1.998780 -0.069785 1.998780 -76.511299 24.203501 -5.112070 -1.709770 -1.298310 -72.765900 -0.087501 -3.779110 0.124686 1.998780 -0.069785 -1.998780 80.911003 13.698600 -19.582399 0.587700 1.277710 57.192902 0.095333 26.735001 -0.054943 5.326700 -17.354300 -11.837600 3.257200 37.520599 0.702001 2.327680 -29.945200 10.820000 5.261190 -21.936899 10.425100 -2.855510 38.255299 -1.094720 3.365650 -25.398100 10.579000 
-3.339390 48.827480 94.144798 -6.699220 1.103520 79.931396 3.881640 14.066200 -5.052090 -2.858170 -20.414900 -8.360940 11.953000 31.769699 -16.533501 5.651910 20.383499 -6.704890 -1.998780 -0.069785 1.998780 -76.502098 23.596399 -4.556420 -1.718890 -1.276860 -73.429802 -0.085969 -4.374780 0.135849 1.998780 -0.069785 -1.998780 81.800903 14.106800 -20.003700 0.573526 1.263780 56.080101 0.099518 27.379000 -0.064301 5.320720 -17.774700 -12.147600 3.239410 37.413799 0.706483 0.843102 -29.013700 8.038840 4.811660 -22.228800 9.713020 -2.863680 38.588799 -1.097840 3.663350 -25.833099 11.079400 
-3.513210 48.786880 95.564301 -6.728520 1.582030 80.399399 4.041400 14.052800 -5.040000 -2.883250 -20.235001 -8.236340 12.242500 31.482500 -16.745800 5.771650 20.343800 -6.811500 -1.998780 -0.069785 1.998780 -76.421501 22.877399 -4.098870 -1.727630 -1.255630 -74.083900 -0.086698 -4.950980 0.126966 1.998780 -0.069785 -1.998780 82.587997 14.489300 -20.070499 0.556266 1.247530 54.752602 0.084129 27.955000 -0.051634 5.426840 -18.188400 -11.838200 3.200950 37.457298 0.756038 -0.665672 -27.236099 4.996500 4.406530 -22.787500 9.135220 -2.827250 39.229801 -1.133930 3.541100 -26.030100 10.834000 
-3.693050 48.791977 96.986000 -6.708990 2.060550 80.614601 4.200100 14.000000 -4.959260 -2.859510 -20.013901 -7.943670 12.587500 31.154100 -17.058100 5.891240 20.284599 -6.946420 -1.998780 -0.069785 1.998780 -76.225998 22.283400 -3.639260 -1.737010 -1.232060 -74.806198 -0.086331 -5.497840 0.128098 1.998780 -0.069785 -1.998780 83.295502 14.730100 -19.962200 0.539680 1.232590 53.503201 0.083871 28.180000 -0.051053 5.577100 -18.760500 -11.477900 3.180160 37.901600 0.779348 -1.574250 -24.263100 2.742270 4.110600 -23.374001 9.025270 -2.801030 40.018101 -1.185410 3.414420 -26.286699 10.490300 
-3.883240 48.741280 98.390503 -6.611330 2.548830 80.614899 4.266890 13.881000 -4.797550 -2.862700 -19.765800 -7.587850 12.799700 30.820499 -17.302700 5.910730 20.196600 -7.035620 -1.998780 -0.069785 1.998780 -75.834702 21.785299 -3.143790 -1.746930 -1.206130 -75.597000 -0.086453 -5.829870 0.129223 1.998780 -0.069785 -1.998780 84.018402 15.039500 -19.728800 0.523040 1.218250 52.273201 0.083040 28.882999 -0.049218 5.645150 -19.372999 -11.540100 3.139730 38.711102 0.822422 -2.403260 -21.001499 0.142959 3.893390 -24.004801 9.154700 -2.783710 40.991501 -1.220250 3.169610 -26.834299 9.902640 
-4.083050 48.676380 99.771301 -6.562500 2.919930 80.693398 4.351130 13.673800 -4.700850 -2.821060 -19.542400 -7.327920 12.993700 30.498800 -17.327299 6.000140 20.108299 -7.042180 -1.998780 -0.069785 1.998780 -75.510002 21.268200 -2.525970 -1.757420 -1.177480 -76.465797 -0.086826 -6.103310 0.129322 1.998780 -0.069785 -1.998780 84.467499 15.357500 -19.394400 0.509077 1.206690 51.258099 0.082505 29.322001 -0.048059 5.598830 -20.207899 -12.371200 3.131200 40.058300 0.852849 -3.142820 -18.172899 -2.734990 3.614010 -24.693100 9.019750 -2.753030 42.034698 -1.274990 3.267540 -27.077801 10.076200 
-4.308140 48.486679 101.125000 -6.494150 3.183590 80.780296 4.371290 13.321500 -4.602330 -2.772910 -19.374599 -7.133340 13.174400 30.014900 -17.408800 6.148710 19.892700 -7.121330 -1.998780 -0.069785 1.998780 -75.178902 20.806499 -1.808810 -1.768130 -1.146730 -77.393204 -0.086185 -6.522980 0.130185 1.998780 -0.069785 -1.998780 84.869301 15.120000 -18.934200 0.494773 1.195260 50.233200 0.081296 30.278999 -0.045501 5.490270 -21.180099 -13.482300 3.087570 41.771000 0.908111 -3.772040 -16.139999 -5.561910 3.367670 -25.623100 8.830500 -2.702640 43.539101 -1.324770 3.518600 -27.068899 10.567200 
-4.537060 48.233479 102.441002 -6.523440 3.271490 80.848701 4.343580 13.038900 -4.505580 -2.623960 -19.156900 -6.957950 13.043800 29.546600 -17.439301 6.077530 19.678200 -7.154580 -1.998780 -0.069785 1.998780 -74.908302 20.332500 -1.252350 -1.778340 -1.115810 -78.320503 -0.086016 -6.981980 0.131145 1.998780 -0.069785 -1.998780 84.932701 15.535100 -18.393999 0.487061 1.189280 49.686501 0.081015 30.493999 -0.044919 5.398480 -22.419399 -14.633900 3.046810 43.974400 0.984257 -4.303010 -14.810800 -8.200960 3.216940 -26.938499 8.384020 -2.640520 45.584599 -1.428260 3.842080 -26.952700 11.233000 
-4.785550 47.923378 103.733002 -6.582030 3.203120 80.917000 4.254340 12.679800 -4.377670 -2.419150 -18.939800 -6.762010 13.293400 28.996799 -17.553101 6.226120 19.482100 -7.243510 -1.998780 -0.069785 1.998780 -74.701302 19.933599 -0.709931 -1.788850 -1.082100 -79.325996 -0.085798 -7.538980 0.132311 1.998780 -0.069785 -1.998780 84.939201 15.634700 -17.782400 0.481935 1.185360 49.325401 0.080798 30.660000 -0.044468 5.340200 -23.768400 -15.480600 2.953450 46.209999 1.109040 -4.777000 -14.395600 -10.108400 3.152940 -28.467100 7.843850 -2.526130 47.867599 -1.578110 3.968740 -26.934799 11.555700 
-5.049690 47.541180 105.012001 -6.708980 3.115230 80.858498 4.295400 12.366100 -4.276060 -2.104930 -18.715099 -6.504840 13.487600 28.527800 -17.697800 6.325270 19.374100 -7.318110 -1.998780 -0.069785 1.998780 -74.652199 19.581900 -0.170222 -1.799230 -1.046570 -80.380203 -0.085566 -8.104980 0.133501 1.998780 -0.069785 -1.998780 84.716400 15.490400 -17.036800 0.478597 1.182840 49.091099 0.080604 30.806999 -0.044070 5.341160 -25.313200 -15.474300 2.887240 48.707100 1.203350 -5.242000 -15.242800 -11.054500 3.078800 -30.095501 7.341810 -2.414010 50.081200 -1.743650 4.239300 -26.448299 12.257500 
-5.314720 47.148079 106.266998 -6.972660 3.095700 80.682800 4.325070 12.003900 -4.151160 -1.807760 -18.558800 -6.240550 13.563400 28.122999 -17.786501 6.364530 19.266500 -7.379420 -1.998780 -0.069785 1.998780 -74.815399 19.150299 0.501151 -1.808250 -1.013500 -81.356400 -0.085424 -8.436980 0.134201 1.998780 -0.069785 -1.998780 84.436501 15.177400 -16.339701 0.476785 1.181480 48.964298 0.080302 31.031000 -0.043455 5.281020 -27.038900 -14.895700 2.739770 51.247601 1.392260 -5.589780 -16.735901 -11.068200 2.881180 -31.823200 6.819480 -2.266140 52.215900 -1.916230 4.660520 -26.203199 13.222500 
-5.568400 46.711380 107.496002 -7.460940 3.115230 80.234100 4.230210 11.781600 -3.952470 -1.526310 -18.416000 -5.853970 13.571300 27.698900 -17.877501 6.323880 19.149599 -7.405420 -1.998780 -0.069785 1.998780 -74.814201 18.813900 1.231850 -1.816970 -0.979288 -82.361702 -0.085220 -8.895970 0.135170 1.998780 -0.069785 -1.998780 84.084000 14.738000 -15.504300 0.475249 1.180330 48.856899 0.080329 31.011999 -0.043510 5.301400 -28.982901 -13.806500 2.581970 54.100601 1.595350 -6.073150 -18.908501 -10.945300 2.762280 -33.765400 6.587160 -2.127980 54.321098 -2.118300 5.014170 -26.344801 13.921600 
